		<svg width="851" height="53" viewBox="0 0 851 53" fill="none" xmlns="http://www.w3.org/2000/svg">
			<g style="mix-blend-mode:luminosity">
			<mask id="path-1-outside-1" maskUnits="userSpaceOnUse" x="0" y="0" width="851" height="53" fill="black">
			<rect fill="#F79E1F" width="851" height="53"/>
			<path d="M19.5832 51C16.4764 51 13.6923 50.4321 11.2311 49.2962C8.76982 48.1604 6.79275 46.4794 5.29986 44.2531C3.84732 42.0269 3.0807 39.3463 3 36.2114H14.0151C14.1765 37.9833 14.7212 39.3463 15.6492 40.3004C16.5772 41.2091 17.7877 41.6634 19.2806 41.6634C20.8138 41.6634 22.0243 41.2772 22.9119 40.5049C23.7996 39.6871 24.2434 38.5739 24.2434 37.1655C24.2434 35.9842 23.8803 35.0074 23.154 34.235C22.4681 33.4627 21.6006 32.8266 20.5516 32.3268C19.5429 31.8271 18.0903 31.2592 16.1939 30.6231C13.4502 29.669 11.2109 28.7149 9.47592 27.7608C7.74094 26.8067 6.24805 25.3982 4.99725 23.5355C3.74645 21.6727 3.12105 19.242 3.12105 16.2434C3.12105 11.7909 4.55341 8.31525 7.41815 5.81641C10.2829 3.27214 14.0151 2 18.6148 2C23.2953 2 27.0678 3.27214 29.9326 5.81641C32.7973 8.31525 34.3305 11.8136 34.5323 16.3115H23.3356C23.2549 14.7668 22.7506 13.5628 21.8225 12.6996C20.8945 11.7909 19.7042 11.3366 18.2517 11.3366C17.0009 11.3366 15.9922 11.7228 15.2256 12.4951C14.459 13.2221 14.0756 14.2898 14.0756 15.6982C14.0756 17.2429 14.7212 18.4469 16.0124 19.3102C17.3035 20.1734 19.3209 21.1048 22.0646 22.1043C24.8083 23.1493 27.0275 24.1488 28.7221 25.1029C30.4571 26.057 31.95 27.4427 33.2008 29.2601C34.4516 31.0774 35.077 33.4172 35.077 36.2796C35.077 39.0056 34.4516 41.4817 33.2008 43.7079C31.9903 45.9342 30.215 47.7061 27.8748 49.0236C25.5346 50.3412 22.7707 51 19.5832 51Z"/>
			<path d="M78.2438 2.6815V50.523H67.8944V30.8275H51.7954V50.523H41.4461V2.6815H51.7954V21.4228H67.8944V2.6815H78.2438Z"/>
			<path d="M107.382 50.523L98.5458 32.4631H96.0644V50.523H85.715V2.6815H103.085C106.434 2.6815 109.279 3.34029 111.619 4.65786C113.999 5.97543 115.775 7.79276 116.945 10.1099C118.115 12.3815 118.7 14.9258 118.7 17.7427C118.7 20.923 117.893 23.7626 116.279 26.2615C114.705 28.7603 112.365 30.5322 109.258 31.5772L119.063 50.523H107.382ZM96.0644 24.217H102.48C104.376 24.217 105.788 23.6945 106.716 22.6495C107.685 21.6045 108.169 20.128 108.169 18.2197C108.169 16.4024 107.685 14.9713 106.716 13.9263C105.788 12.8813 104.376 12.3588 102.48 12.3588H96.0644V24.217Z"/>
			<path d="M135.546 12.0181V21.6954H149.406V30.6912H135.546V41.1864H151.221V50.523H125.197V2.6815H151.221V12.0181H135.546Z"/>
			<path d="M168.29 12.0181V21.6954H182.149V30.6912H168.29V41.1864H183.965V50.523H157.94V2.6815H183.965V12.0181H168.29Z"/>
			<path d="M231.713 17.8108C230.946 16.2207 229.837 15.0167 228.384 14.1989C226.972 13.3356 225.298 12.904 223.361 12.904C220.012 12.904 217.329 14.1535 215.311 16.6523C213.294 19.1057 212.285 22.3996 212.285 26.5341C212.285 30.9411 213.334 34.3941 215.433 36.8929C217.571 39.3463 220.496 40.573 224.208 40.573C226.75 40.573 228.889 39.8461 230.624 38.3922C232.399 36.9383 233.69 34.8484 234.497 32.1224H221.364V23.5355H243.878V34.3714C243.112 37.2791 241.8 39.9824 239.944 42.4812C238.129 44.9801 235.808 47.0019 232.984 48.5466C230.16 50.0913 226.972 50.8637 223.422 50.8637C219.225 50.8637 215.473 49.8414 212.164 47.7969C208.896 45.707 206.334 42.822 204.478 39.1419C202.662 35.4618 201.754 31.2592 201.754 26.5341C201.754 21.809 202.662 17.6064 204.478 13.9263C206.334 10.2007 208.896 7.31572 212.164 5.27121C215.433 3.18127 219.165 2.1363 223.361 2.1363C228.445 2.1363 232.722 3.52202 236.192 6.29346C239.702 9.0649 242.022 12.904 243.152 17.8108H231.713Z"/>
			<path d="M276.059 42.0723H260.202L257.66 50.523H246.827L262.2 2.6815H274.183L289.556 50.523H278.601L276.059 42.0723ZM273.396 33.0765L268.131 15.5619L262.926 33.0765H273.396Z"/>
			<path d="M332.243 50.523H321.893L304.584 21.0139V50.523H294.234V2.6815H304.584L321.893 32.3268V2.6815H332.243V50.523Z"/>
			<path d="M350.094 12.0181V21.6954H363.954V30.6912H350.094V41.1864H365.769V50.523H339.745V2.6815H365.769V12.0181H350.094Z"/>
			<path d="M387.861 51C384.754 51 381.97 50.4321 379.509 49.2962C377.048 48.1604 375.071 46.4794 373.578 44.2531C372.125 42.0269 371.359 39.3463 371.278 36.2114H382.293C382.454 37.9833 382.999 39.3463 383.927 40.3004C384.855 41.2091 386.066 41.6634 387.558 41.6634C389.092 41.6634 390.302 41.2772 391.19 40.5049C392.077 39.6871 392.521 38.5739 392.521 37.1655C392.521 35.9842 392.158 35.0074 391.432 34.235C390.746 33.4627 389.878 32.8266 388.829 32.3268C387.821 31.8271 386.368 31.2592 384.472 30.6231C381.728 29.669 379.489 28.7149 377.754 27.7608C376.019 26.8067 374.526 25.3982 373.275 23.5355C372.024 21.6727 371.399 19.242 371.399 16.2434C371.399 11.7909 372.831 8.31525 375.696 5.81641C378.561 3.27214 382.293 2 386.893 2C391.573 2 395.346 3.27214 398.21 5.81641C401.075 8.31525 402.608 11.8136 402.81 16.3115H391.613C391.533 14.7668 391.028 13.5628 390.1 12.6996C389.172 11.7909 387.982 11.3366 386.53 11.3366C385.279 11.3366 384.27 11.7228 383.503 12.4951C382.737 13.2221 382.353 14.2898 382.353 15.6982C382.353 17.2429 382.999 18.4469 384.29 19.3102C385.581 20.1734 387.599 21.1048 390.342 22.1043C393.086 23.1493 395.305 24.1488 397 25.1029C398.735 26.057 400.228 27.4427 401.479 29.2601C402.729 31.0774 403.355 33.4172 403.355 36.2796C403.355 39.0056 402.729 41.4817 401.479 43.7079C400.268 45.9342 398.493 47.7061 396.153 49.0236C393.812 50.3412 391.049 51 387.861 51Z"/>
			<path d="M446.522 2.6815V50.523H436.172V30.8275H420.073V50.523H409.724V2.6815H420.073V21.4228H436.172V2.6815H446.522Z"/>
			<path d="M477.168 12.0181V21.6954H491.028V30.6912H477.168V41.1864H492.843V50.523H466.819V2.6815H492.843V12.0181H477.168Z"/>
			<path d="M537.57 50.523H527.221L509.912 21.0139V50.523H499.562V2.6815H509.912L527.221 32.3268V2.6815H537.57V50.523Z"/>
			<path d="M575.636 2.6815V12.0181H564.379V50.523H554.03V12.0181H542.773V2.6815H575.636Z"/>
			<path d="M591.18 12.0181V21.6954H605.039V30.6912H591.18V41.1864H606.855V50.523H580.83V2.6815H606.855V12.0181H591.18Z"/>
			<path d="M635.241 50.523L626.405 32.4631H623.923V50.523H613.574V2.6815H630.944C634.293 2.6815 637.138 3.34029 639.478 4.65786C641.858 5.97543 643.634 7.79276 644.804 10.1099C645.974 12.3815 646.559 14.9258 646.559 17.7427C646.559 20.923 645.752 23.7626 644.138 26.2615C642.564 28.7603 640.224 30.5322 637.117 31.5772L646.922 50.523H635.241ZM623.923 24.217H630.339C632.235 24.217 633.647 23.6945 634.575 22.6495C635.544 21.6045 636.028 20.128 636.028 18.2197C636.028 16.4024 635.544 14.9713 634.575 13.9263C633.647 12.8813 632.235 12.3588 630.339 12.3588H623.923V24.217Z"/>
			<path d="M685.435 18.0835C685.435 20.8549 684.87 23.3992 683.741 25.7163C682.611 27.9879 680.876 29.828 678.536 31.2364C676.195 32.6449 673.29 33.3491 669.82 33.3491H663.405V50.523H653.056V2.6815H669.82C673.21 2.6815 676.074 3.34029 678.415 4.65786C680.755 5.97543 682.51 7.79276 683.68 10.1099C684.85 12.427 685.435 15.0848 685.435 18.0835ZM669.034 24.0807C671.011 24.0807 672.483 23.5582 673.452 22.5132C674.42 21.4682 674.904 19.9917 674.904 18.0835C674.904 16.1752 674.42 14.6987 673.452 13.6537C672.483 12.6087 671.011 12.0862 669.034 12.0862H663.405V24.0807H669.034Z"/>
			<path d="M712.49 50.523L703.654 32.4631H701.173V50.523H690.823V2.6815H708.193C711.542 2.6815 714.387 3.34029 716.727 4.65786C719.107 5.97543 720.883 7.79276 722.053 10.1099C723.223 12.3815 723.808 14.9258 723.808 17.7427C723.808 20.923 723.001 23.7626 721.387 26.2615C719.813 28.7603 717.473 30.5322 714.366 31.5772L724.171 50.523H712.49ZM701.173 24.217H707.588C709.484 24.217 710.897 23.6945 711.825 22.6495C712.793 21.6045 713.277 20.128 713.277 18.2197C713.277 16.4024 712.793 14.9713 711.825 13.9263C710.897 12.8813 709.484 12.3588 707.588 12.3588H701.173V24.217Z"/>
			<path d="M740.654 2.6815V50.523H730.305V2.6815H740.654Z"/>
			<path d="M763.527 51C760.42 51 757.636 50.4321 755.175 49.2962C752.714 48.1604 750.736 46.4794 749.244 44.2531C747.791 42.0269 747.024 39.3463 746.944 36.2114H757.959C758.12 37.9833 758.665 39.3463 759.593 40.3004C760.521 41.2091 761.731 41.6634 763.224 41.6634C764.757 41.6634 765.968 41.2772 766.856 40.5049C767.743 39.6871 768.187 38.5739 768.187 37.1655C768.187 35.9842 767.824 35.0074 767.098 34.235C766.412 33.4627 765.544 32.8266 764.495 32.3268C763.487 31.8271 762.034 31.2592 760.138 30.6231C757.394 29.669 755.155 28.7149 753.42 27.7608C751.685 26.8067 750.192 25.3982 748.941 23.5355C747.69 21.6727 747.065 19.242 747.065 16.2434C747.065 11.7909 748.497 8.31525 751.362 5.81641C754.227 3.27214 757.959 2 762.559 2C767.239 2 771.011 3.27214 773.876 5.81641C776.741 8.31525 778.274 11.8136 778.476 16.3115H767.279C767.199 14.7668 766.694 13.5628 765.766 12.6996C764.838 11.7909 763.648 11.3366 762.195 11.3366C760.945 11.3366 759.936 11.7228 759.169 12.4951C758.403 13.2221 758.019 14.2898 758.019 15.6982C758.019 17.2429 758.665 18.4469 759.956 19.3102C761.247 20.1734 763.265 21.1048 766.008 22.1043C768.752 23.1493 770.971 24.1488 772.666 25.1029C774.401 26.057 775.894 27.4427 777.145 29.2601C778.395 31.0774 779.021 33.4172 779.021 36.2796C779.021 39.0056 778.395 41.4817 777.145 43.7079C775.934 45.9342 774.159 47.7061 771.819 49.0236C769.478 50.3412 766.714 51 763.527 51Z"/>
			<path d="M795.739 12.0181V21.6954H809.599V30.6912H795.739V41.1864H811.415V50.523H785.39V2.6815H811.415V12.0181H795.739Z"/>
			<path d="M833.506 51C830.399 51 827.615 50.4321 825.154 49.2962C822.693 48.1604 820.716 46.4794 819.223 44.2531C817.77 42.0269 817.004 39.3463 816.923 36.2114H827.938C828.1 37.9833 828.644 39.3463 829.572 40.3004C830.5 41.2091 831.711 41.6634 833.204 41.6634C834.737 41.6634 835.947 41.2772 836.835 40.5049C837.723 39.6871 838.166 38.5739 838.166 37.1655C838.166 35.9842 837.803 35.0074 837.077 34.235C836.391 33.4627 835.524 32.8266 834.475 32.3268C833.466 31.8271 832.013 31.2592 830.117 30.6231C827.373 29.669 825.134 28.7149 823.399 27.7608C821.664 26.8067 820.171 25.3982 818.92 23.5355C817.669 21.6727 817.044 19.242 817.044 16.2434C817.044 11.7909 818.476 8.31525 821.341 5.81641C824.206 3.27214 827.938 2 832.538 2C837.218 2 840.991 3.27214 843.856 5.81641C846.72 8.31525 848.254 11.8136 848.455 16.3115H837.259C837.178 14.7668 836.674 13.5628 835.746 12.6996C834.818 11.7909 833.627 11.3366 832.175 11.3366C830.924 11.3366 829.915 11.7228 829.149 12.4951C828.382 13.2221 827.999 14.2898 827.999 15.6982C827.999 17.2429 828.644 18.4469 829.935 19.3102C831.226 20.1734 833.244 21.1048 835.988 22.1043C838.731 23.1493 840.95 24.1488 842.645 25.1029C844.38 26.057 845.873 27.4427 847.124 29.2601C848.375 31.0774 849 33.4172 849 36.2796C849 39.0056 848.375 41.4817 847.124 43.7079C845.913 45.9342 844.138 47.7061 841.798 49.0236C839.458 50.3412 836.694 51 833.506 51Z"/>
			</mask>
			<path d="M19.5832 51C16.4764 51 13.6923 50.4321 11.2311 49.2962C8.76982 48.1604 6.79275 46.4794 5.29986 44.2531C3.84732 42.0269 3.0807 39.3463 3 36.2114H14.0151C14.1765 37.9833 14.7212 39.3463 15.6492 40.3004C16.5772 41.2091 17.7877 41.6634 19.2806 41.6634C20.8138 41.6634 22.0243 41.2772 22.9119 40.5049C23.7996 39.6871 24.2434 38.5739 24.2434 37.1655C24.2434 35.9842 23.8803 35.0074 23.154 34.235C22.4681 33.4627 21.6006 32.8266 20.5516 32.3268C19.5429 31.8271 18.0903 31.2592 16.1939 30.6231C13.4502 29.669 11.2109 28.7149 9.47592 27.7608C7.74094 26.8067 6.24805 25.3982 4.99725 23.5355C3.74645 21.6727 3.12105 19.242 3.12105 16.2434C3.12105 11.7909 4.55341 8.31525 7.41815 5.81641C10.2829 3.27214 14.0151 2 18.6148 2C23.2953 2 27.0678 3.27214 29.9326 5.81641C32.7973 8.31525 34.3305 11.8136 34.5323 16.3115H23.3356C23.2549 14.7668 22.7506 13.5628 21.8225 12.6996C20.8945 11.7909 19.7042 11.3366 18.2517 11.3366C17.0009 11.3366 15.9922 11.7228 15.2256 12.4951C14.459 13.2221 14.0756 14.2898 14.0756 15.6982C14.0756 17.2429 14.7212 18.4469 16.0124 19.3102C17.3035 20.1734 19.3209 21.1048 22.0646 22.1043C24.8083 23.1493 27.0275 24.1488 28.7221 25.1029C30.4571 26.057 31.95 27.4427 33.2008 29.2601C34.4516 31.0774 35.077 33.4172 35.077 36.2796C35.077 39.0056 34.4516 41.4817 33.2008 43.7079C31.9903 45.9342 30.215 47.7061 27.8748 49.0236C25.5346 50.3412 22.7707 51 19.5832 51Z" stroke="white" stroke-width="4" mask="url(#path-1-outside-1)"/>
			<path d="M78.2438 2.6815V50.523H67.8944V30.8275H51.7954V50.523H41.4461V2.6815H51.7954V21.4228H67.8944V2.6815H78.2438Z" stroke="white" stroke-width="4" mask="url(#path-1-outside-1)"/>
			<path d="M107.382 50.523L98.5458 32.4631H96.0644V50.523H85.715V2.6815H103.085C106.434 2.6815 109.279 3.34029 111.619 4.65786C113.999 5.97543 115.775 7.79276 116.945 10.1099C118.115 12.3815 118.7 14.9258 118.7 17.7427C118.7 20.923 117.893 23.7626 116.279 26.2615C114.705 28.7603 112.365 30.5322 109.258 31.5772L119.063 50.523H107.382ZM96.0644 24.217H102.48C104.376 24.217 105.788 23.6945 106.716 22.6495C107.685 21.6045 108.169 20.128 108.169 18.2197C108.169 16.4024 107.685 14.9713 106.716 13.9263C105.788 12.8813 104.376 12.3588 102.48 12.3588H96.0644V24.217Z" stroke="white" stroke-width="4" mask="url(#path-1-outside-1)"/>
			<path d="M135.546 12.0181V21.6954H149.406V30.6912H135.546V41.1864H151.221V50.523H125.197V2.6815H151.221V12.0181H135.546Z" stroke="white" stroke-width="4" mask="url(#path-1-outside-1)"/>
			<path d="M168.29 12.0181V21.6954H182.149V30.6912H168.29V41.1864H183.965V50.523H157.94V2.6815H183.965V12.0181H168.29Z" stroke="white" stroke-width="4" mask="url(#path-1-outside-1)"/>
			<path d="M231.713 17.8108C230.946 16.2207 229.837 15.0167 228.384 14.1989C226.972 13.3356 225.298 12.904 223.361 12.904C220.012 12.904 217.329 14.1535 215.311 16.6523C213.294 19.1057 212.285 22.3996 212.285 26.5341C212.285 30.9411 213.334 34.3941 215.433 36.8929C217.571 39.3463 220.496 40.573 224.208 40.573C226.75 40.573 228.889 39.8461 230.624 38.3922C232.399 36.9383 233.69 34.8484 234.497 32.1224H221.364V23.5355H243.878V34.3714C243.112 37.2791 241.8 39.9824 239.944 42.4812C238.129 44.9801 235.808 47.0019 232.984 48.5466C230.16 50.0913 226.972 50.8637 223.422 50.8637C219.225 50.8637 215.473 49.8414 212.164 47.7969C208.896 45.707 206.334 42.822 204.478 39.1419C202.662 35.4618 201.754 31.2592 201.754 26.5341C201.754 21.809 202.662 17.6064 204.478 13.9263C206.334 10.2007 208.896 7.31572 212.164 5.27121C215.433 3.18127 219.165 2.1363 223.361 2.1363C228.445 2.1363 232.722 3.52202 236.192 6.29346C239.702 9.0649 242.022 12.904 243.152 17.8108H231.713Z" stroke="white" stroke-width="4" mask="url(#path-1-outside-1)"/>
			<path d="M276.059 42.0723H260.202L257.66 50.523H246.827L262.2 2.6815H274.183L289.556 50.523H278.601L276.059 42.0723ZM273.396 33.0765L268.131 15.5619L262.926 33.0765H273.396Z" stroke="white" stroke-width="4" mask="url(#path-1-outside-1)"/>
			<path d="M332.243 50.523H321.893L304.584 21.0139V50.523H294.234V2.6815H304.584L321.893 32.3268V2.6815H332.243V50.523Z" stroke="white" stroke-width="4" mask="url(#path-1-outside-1)"/>
			<path d="M350.094 12.0181V21.6954H363.954V30.6912H350.094V41.1864H365.769V50.523H339.745V2.6815H365.769V12.0181H350.094Z" stroke="white" stroke-width="4" mask="url(#path-1-outside-1)"/>
			<path d="M387.861 51C384.754 51 381.97 50.4321 379.509 49.2962C377.048 48.1604 375.071 46.4794 373.578 44.2531C372.125 42.0269 371.359 39.3463 371.278 36.2114H382.293C382.454 37.9833 382.999 39.3463 383.927 40.3004C384.855 41.2091 386.066 41.6634 387.558 41.6634C389.092 41.6634 390.302 41.2772 391.19 40.5049C392.077 39.6871 392.521 38.5739 392.521 37.1655C392.521 35.9842 392.158 35.0074 391.432 34.235C390.746 33.4627 389.878 32.8266 388.829 32.3268C387.821 31.8271 386.368 31.2592 384.472 30.6231C381.728 29.669 379.489 28.7149 377.754 27.7608C376.019 26.8067 374.526 25.3982 373.275 23.5355C372.024 21.6727 371.399 19.242 371.399 16.2434C371.399 11.7909 372.831 8.31525 375.696 5.81641C378.561 3.27214 382.293 2 386.893 2C391.573 2 395.346 3.27214 398.21 5.81641C401.075 8.31525 402.608 11.8136 402.81 16.3115H391.613C391.533 14.7668 391.028 13.5628 390.1 12.6996C389.172 11.7909 387.982 11.3366 386.53 11.3366C385.279 11.3366 384.27 11.7228 383.503 12.4951C382.737 13.2221 382.353 14.2898 382.353 15.6982C382.353 17.2429 382.999 18.4469 384.29 19.3102C385.581 20.1734 387.599 21.1048 390.342 22.1043C393.086 23.1493 395.305 24.1488 397 25.1029C398.735 26.057 400.228 27.4427 401.479 29.2601C402.729 31.0774 403.355 33.4172 403.355 36.2796C403.355 39.0056 402.729 41.4817 401.479 43.7079C400.268 45.9342 398.493 47.7061 396.153 49.0236C393.812 50.3412 391.049 51 387.861 51Z" stroke="white" stroke-width="4" mask="url(#path-1-outside-1)"/>
			<path d="M446.522 2.6815V50.523H436.172V30.8275H420.073V50.523H409.724V2.6815H420.073V21.4228H436.172V2.6815H446.522Z" stroke="white" stroke-width="4" mask="url(#path-1-outside-1)"/>
			<path d="M477.168 12.0181V21.6954H491.028V30.6912H477.168V41.1864H492.843V50.523H466.819V2.6815H492.843V12.0181H477.168Z" stroke="white" stroke-width="4" mask="url(#path-1-outside-1)"/>
			<path d="M537.57 50.523H527.221L509.912 21.0139V50.523H499.562V2.6815H509.912L527.221 32.3268V2.6815H537.57V50.523Z" stroke="white" stroke-width="4" mask="url(#path-1-outside-1)"/>
			<path d="M575.636 2.6815V12.0181H564.379V50.523H554.03V12.0181H542.773V2.6815H575.636Z" stroke="white" stroke-width="4" mask="url(#path-1-outside-1)"/>
			<path d="M591.18 12.0181V21.6954H605.039V30.6912H591.18V41.1864H606.855V50.523H580.83V2.6815H606.855V12.0181H591.18Z" stroke="white" stroke-width="4" mask="url(#path-1-outside-1)"/>
			<path d="M635.241 50.523L626.405 32.4631H623.923V50.523H613.574V2.6815H630.944C634.293 2.6815 637.138 3.34029 639.478 4.65786C641.858 5.97543 643.634 7.79276 644.804 10.1099C645.974 12.3815 646.559 14.9258 646.559 17.7427C646.559 20.923 645.752 23.7626 644.138 26.2615C642.564 28.7603 640.224 30.5322 637.117 31.5772L646.922 50.523H635.241ZM623.923 24.217H630.339C632.235 24.217 633.647 23.6945 634.575 22.6495C635.544 21.6045 636.028 20.128 636.028 18.2197C636.028 16.4024 635.544 14.9713 634.575 13.9263C633.647 12.8813 632.235 12.3588 630.339 12.3588H623.923V24.217Z" stroke="white" stroke-width="4" mask="url(#path-1-outside-1)"/>
			<path d="M685.435 18.0835C685.435 20.8549 684.87 23.3992 683.741 25.7163C682.611 27.9879 680.876 29.828 678.536 31.2364C676.195 32.6449 673.29 33.3491 669.82 33.3491H663.405V50.523H653.056V2.6815H669.82C673.21 2.6815 676.074 3.34029 678.415 4.65786C680.755 5.97543 682.51 7.79276 683.68 10.1099C684.85 12.427 685.435 15.0848 685.435 18.0835ZM669.034 24.0807C671.011 24.0807 672.483 23.5582 673.452 22.5132C674.42 21.4682 674.904 19.9917 674.904 18.0835C674.904 16.1752 674.42 14.6987 673.452 13.6537C672.483 12.6087 671.011 12.0862 669.034 12.0862H663.405V24.0807H669.034Z" stroke="white" stroke-width="4" mask="url(#path-1-outside-1)"/>
			<path d="M712.49 50.523L703.654 32.4631H701.173V50.523H690.823V2.6815H708.193C711.542 2.6815 714.387 3.34029 716.727 4.65786C719.107 5.97543 720.883 7.79276 722.053 10.1099C723.223 12.3815 723.808 14.9258 723.808 17.7427C723.808 20.923 723.001 23.7626 721.387 26.2615C719.813 28.7603 717.473 30.5322 714.366 31.5772L724.171 50.523H712.49ZM701.173 24.217H707.588C709.484 24.217 710.897 23.6945 711.825 22.6495C712.793 21.6045 713.277 20.128 713.277 18.2197C713.277 16.4024 712.793 14.9713 711.825 13.9263C710.897 12.8813 709.484 12.3588 707.588 12.3588H701.173V24.217Z" stroke="white" stroke-width="4" mask="url(#path-1-outside-1)"/>
			<path d="M740.654 2.6815V50.523H730.305V2.6815H740.654Z" stroke="white" stroke-width="4" mask="url(#path-1-outside-1)"/>
			<path d="M763.527 51C760.42 51 757.636 50.4321 755.175 49.2962C752.714 48.1604 750.736 46.4794 749.244 44.2531C747.791 42.0269 747.024 39.3463 746.944 36.2114H757.959C758.12 37.9833 758.665 39.3463 759.593 40.3004C760.521 41.2091 761.731 41.6634 763.224 41.6634C764.757 41.6634 765.968 41.2772 766.856 40.5049C767.743 39.6871 768.187 38.5739 768.187 37.1655C768.187 35.9842 767.824 35.0074 767.098 34.235C766.412 33.4627 765.544 32.8266 764.495 32.3268C763.487 31.8271 762.034 31.2592 760.138 30.6231C757.394 29.669 755.155 28.7149 753.42 27.7608C751.685 26.8067 750.192 25.3982 748.941 23.5355C747.69 21.6727 747.065 19.242 747.065 16.2434C747.065 11.7909 748.497 8.31525 751.362 5.81641C754.227 3.27214 757.959 2 762.559 2C767.239 2 771.011 3.27214 773.876 5.81641C776.741 8.31525 778.274 11.8136 778.476 16.3115H767.279C767.199 14.7668 766.694 13.5628 765.766 12.6996C764.838 11.7909 763.648 11.3366 762.195 11.3366C760.945 11.3366 759.936 11.7228 759.169 12.4951C758.403 13.2221 758.019 14.2898 758.019 15.6982C758.019 17.2429 758.665 18.4469 759.956 19.3102C761.247 20.1734 763.265 21.1048 766.008 22.1043C768.752 23.1493 770.971 24.1488 772.666 25.1029C774.401 26.057 775.894 27.4427 777.145 29.2601C778.395 31.0774 779.021 33.4172 779.021 36.2796C779.021 39.0056 778.395 41.4817 777.145 43.7079C775.934 45.9342 774.159 47.7061 771.819 49.0236C769.478 50.3412 766.714 51 763.527 51Z" stroke="white" stroke-width="4" mask="url(#path-1-outside-1)"/>
			<path d="M795.739 12.0181V21.6954H809.599V30.6912H795.739V41.1864H811.415V50.523H785.39V2.6815H811.415V12.0181H795.739Z" stroke="white" stroke-width="4" mask="url(#path-1-outside-1)"/>
			<path d="M833.506 51C830.399 51 827.615 50.4321 825.154 49.2962C822.693 48.1604 820.716 46.4794 819.223 44.2531C817.77 42.0269 817.004 39.3463 816.923 36.2114H827.938C828.1 37.9833 828.644 39.3463 829.572 40.3004C830.5 41.2091 831.711 41.6634 833.204 41.6634C834.737 41.6634 835.947 41.2772 836.835 40.5049C837.723 39.6871 838.166 38.5739 838.166 37.1655C838.166 35.9842 837.803 35.0074 837.077 34.235C836.391 33.4627 835.524 32.8266 834.475 32.3268C833.466 31.8271 832.013 31.2592 830.117 30.6231C827.373 29.669 825.134 28.7149 823.399 27.7608C821.664 26.8067 820.171 25.3982 818.92 23.5355C817.669 21.6727 817.044 19.242 817.044 16.2434C817.044 11.7909 818.476 8.31525 821.341 5.81641C824.206 3.27214 827.938 2 832.538 2C837.218 2 840.991 3.27214 843.856 5.81641C846.72 8.31525 848.254 11.8136 848.455 16.3115H837.259C837.178 14.7668 836.674 13.5628 835.746 12.6996C834.818 11.7909 833.627 11.3366 832.175 11.3366C830.924 11.3366 829.915 11.7228 829.149 12.4951C828.382 13.2221 827.999 14.2898 827.999 15.6982C827.999 17.2429 828.644 18.4469 829.935 19.3102C831.226 20.1734 833.244 21.1048 835.988 22.1043C838.731 23.1493 840.95 24.1488 842.645 25.1029C844.38 26.057 845.873 27.4427 847.124 29.2601C848.375 31.0774 849 33.4172 849 36.2796C849 39.0056 848.375 41.4817 847.124 43.7079C845.913 45.9342 844.138 47.7061 841.798 49.0236C839.458 50.3412 836.694 51 833.506 51Z" stroke="white" stroke-width="4" mask="url(#path-1-outside-1)"/>
			</g>
			</svg>